<svg width="103" height="40" viewBox="0 0 103 40" fill="none" xmlns="http://www.w3.org/2000/svg">
<path d="M24.4295 0.132049C20.4679 0.132049 16.5064 1.71667 13.7333 4.62179L4.48974 13.8654C1.58462 16.6385 0 20.6 0 24.5615C0 32.8807 6.73461 39.7474 15.1859 39.7474C19.1474 39.7474 23.109 38.1628 25.882 35.2577L32.3525 28.7872L51.1038 10.0359C52.4243 8.71538 54.273 7.92307 56.2538 7.92307C59.423 7.92307 62.1961 10.0359 63.1205 12.941L69.0628 6.99871C66.4217 2.77307 61.6679 0 56.2538 0C52.2923 0 48.3307 1.58461 45.5577 4.48974L20.4679 29.5795C19.1474 30.9 17.2987 31.6923 15.3179 31.6923C11.3564 31.6923 8.05512 28.391 8.05512 24.4295C8.05512 22.4487 8.84743 20.732 10.1679 19.2795L19.4115 10.0359C20.732 8.71538 22.5807 7.92307 24.5615 7.92307C27.7307 7.92307 30.5038 10.0359 31.4282 12.941L37.3705 6.99871C34.5974 2.90512 29.8436 0.132049 24.4295 0.132049Z" fill="url(#paint0_linear_8_4)"/>
<path d="M52.0282 29.7115C50.7077 31.0321 48.859 31.8244 46.8782 31.8244C43.709 31.8244 40.9359 29.7115 40.0116 26.8064L34.0693 32.7487C36.7103 36.9744 41.4641 39.7474 46.8782 39.7474C50.8398 39.7474 54.8013 38.1628 57.5744 35.2577L82.6641 10.168C83.9846 8.84746 85.8333 8.05515 87.8141 8.05515C91.7756 8.05515 95.0769 11.3564 95.0769 15.318C95.0769 17.2987 94.2846 19.0154 92.9641 20.468L83.7205 29.7115C82.4 31.0321 80.5513 31.8244 78.5705 31.8244C75.4013 31.8244 72.6282 29.7115 71.7039 26.8064L65.7616 32.7487C68.4026 36.9744 73.1564 39.7474 78.5705 39.7474C82.5321 39.7474 86.4936 38.1628 89.2667 35.2577L98.5103 26.0141C101.415 23.241 103 19.2795 103 15.318C103 6.99874 96.2654 0.13208 87.8141 0.13208C83.8526 0.13208 79.891 1.7167 77.118 4.62182L52.0282 29.7115Z" fill="url(#paint1_linear_8_4)"/>
<defs>
<linearGradient id="paint0_linear_8_4" x1="65.5" y1="6.97157" x2="19.372" y2="17.2471" gradientUnits="userSpaceOnUse">
<stop offset="1" stop-color="white"/>
</linearGradient>
<linearGradient id="paint1_linear_8_4" x1="99.4441" y1="7.08049" x2="53.4104" y2="17.3495" gradientUnits="userSpaceOnUse">
<stop offset="1" stop-color="white"/>
</linearGradient>
</defs>
</svg>
