<svg width="211" height="40" viewBox="0 0 211 40" fill="none" xmlns="http://www.w3.org/2000/svg">
<path d="M24.4295 0.132049C20.4679 0.132049 16.5064 1.71667 13.7333 4.62179L4.48974 13.8654C1.58462 16.6385 0 20.6 0 24.5615C0 32.8807 6.73461 39.7474 15.1859 39.7474C19.1474 39.7474 23.109 38.1628 25.882 35.2577L32.3525 28.7872L51.1038 10.0359C52.4243 8.71538 54.273 7.92307 56.2538 7.92307C59.423 7.92307 62.1961 10.0359 63.1205 12.941L69.0628 6.99871C66.4217 2.77307 61.6679 0 56.2538 0C52.2923 0 48.3307 1.58461 45.5577 4.48974L20.4679 29.5795C19.1474 30.9 17.2987 31.6923 15.3179 31.6923C11.3564 31.6923 8.05512 28.391 8.05512 24.4295C8.05512 22.4487 8.84743 20.732 10.1679 19.2795L19.4115 10.0359C20.732 8.71538 22.5807 7.92307 24.5615 7.92307C27.7307 7.92307 30.5038 10.0359 31.4282 12.941L37.3705 6.99871C34.5974 2.90512 29.8436 0.132049 24.4295 0.132049Z" fill="url(#paint0_linear_26_2)"/>
<path d="M52.0282 29.7115C50.7077 31.0321 48.859 31.8244 46.8782 31.8244C43.709 31.8244 40.9359 29.7115 40.0116 26.8064L34.0693 32.7487C36.7103 36.9744 41.4641 39.7474 46.8782 39.7474C50.8398 39.7474 54.8013 38.1628 57.5744 35.2577L82.6641 10.168C83.9846 8.84746 85.8333 8.05515 87.8141 8.05515C91.7756 8.05515 95.0769 11.3564 95.0769 15.318C95.0769 17.2987 94.2846 19.0154 92.9641 20.468L83.7205 29.7115C82.4 31.0321 80.5513 31.8244 78.5705 31.8244C75.4013 31.8244 72.6282 29.7115 71.7039 26.8064L65.7616 32.7487C68.4026 36.9744 73.1564 39.7474 78.5705 39.7474C82.5321 39.7474 86.4936 38.1628 89.2667 35.2577L98.5103 26.0141C101.415 23.241 103 19.2795 103 15.318C103 6.99874 96.2654 0.13208 87.8141 0.13208C83.8526 0.13208 79.891 1.7167 77.118 4.62182L52.0282 29.7115Z" fill="url(#paint1_linear_26_2)"/>
<path d="M109.88 27V13H112.48V24.8H119.8V27H109.88ZM128.212 27V24.84L128.072 24.38V20.6C128.072 19.8667 127.852 19.3 127.412 18.9C126.972 18.4867 126.306 18.28 125.412 18.28C124.812 18.28 124.219 18.3733 123.632 18.56C123.059 18.7467 122.572 19.0067 122.172 19.34L121.192 17.52C121.766 17.08 122.446 16.7533 123.232 16.54C124.032 16.3133 124.859 16.2 125.712 16.2C127.259 16.2 128.452 16.5733 129.292 17.32C130.146 18.0533 130.572 19.1933 130.572 20.74V27H128.212ZM124.852 27.14C124.052 27.14 123.352 27.0067 122.752 26.74C122.152 26.46 121.686 26.08 121.352 25.6C121.032 25.1067 120.872 24.5533 120.872 23.94C120.872 23.34 121.012 22.8 121.292 22.32C121.586 21.84 122.059 21.46 122.712 21.18C123.366 20.9 124.232 20.76 125.312 20.76H128.412V22.42H125.492C124.639 22.42 124.066 22.56 123.772 22.84C123.479 23.1067 123.332 23.44 123.332 23.84C123.332 24.2933 123.512 24.6533 123.872 24.92C124.232 25.1867 124.732 25.32 125.372 25.32C125.986 25.32 126.532 25.18 127.012 24.9C127.506 24.62 127.859 24.2067 128.072 23.66L128.492 25.16C128.252 25.7867 127.819 26.2733 127.192 26.62C126.579 26.9667 125.799 27.14 124.852 27.14ZM135.945 27L132.025 16.32H134.385L137.745 25.74H136.625L140.145 16.32H142.245L145.665 25.74H144.565L148.025 16.32H150.245L146.305 27H143.905L140.785 18.66H141.525L138.345 27H135.945ZM158.587 27.2C157.52 27.2 156.527 27.0267 155.607 26.68C154.7 26.32 153.907 25.82 153.227 25.18C152.56 24.5267 152.04 23.76 151.667 22.88C151.293 22 151.107 21.04 151.107 20C151.107 18.96 151.293 18 151.667 17.12C152.04 16.24 152.567 15.48 153.247 14.84C153.927 14.1867 154.72 13.6867 155.627 13.34C156.533 12.98 157.527 12.8 158.607 12.8C159.753 12.8 160.8 13 161.747 13.4C162.693 13.7867 163.493 14.3667 164.147 15.14L162.467 16.72C161.96 16.1733 161.393 15.7667 160.767 15.5C160.14 15.22 159.46 15.08 158.727 15.08C157.993 15.08 157.32 15.2 156.707 15.44C156.107 15.68 155.58 16.02 155.127 16.46C154.687 16.9 154.34 17.42 154.087 18.02C153.847 18.62 153.727 19.28 153.727 20C153.727 20.72 153.847 21.38 154.087 21.98C154.34 22.58 154.687 23.1 155.127 23.54C155.58 23.98 156.107 24.32 156.707 24.56C157.32 24.8 157.993 24.92 158.727 24.92C159.46 24.92 160.14 24.7867 160.767 24.52C161.393 24.24 161.96 23.82 162.467 23.26L164.147 24.86C163.493 25.62 162.693 26.2 161.747 26.6C160.8 27 159.747 27.2 158.587 27.2ZM172.458 16.2C173.311 16.2 174.071 16.3667 174.738 16.7C175.418 17.0333 175.951 17.5467 176.338 18.24C176.724 18.92 176.918 19.8 176.918 20.88V27H174.418V21.2C174.418 20.2533 174.191 19.5467 173.738 19.08C173.298 18.6133 172.678 18.38 171.878 18.38C171.291 18.38 170.771 18.5 170.318 18.74C169.864 18.98 169.511 19.34 169.258 19.82C169.018 20.2867 168.898 20.88 168.898 21.6V27H166.398V12.16H168.898V19.2L168.358 18.32C168.731 17.64 169.271 17.12 169.978 16.76C170.698 16.3867 171.524 16.2 172.458 16.2ZM186.669 27V24.84L186.529 24.38V20.6C186.529 19.8667 186.309 19.3 185.869 18.9C185.429 18.4867 184.763 18.28 183.869 18.28C183.269 18.28 182.676 18.3733 182.089 18.56C181.516 18.7467 181.029 19.0067 180.629 19.34L179.649 17.52C180.223 17.08 180.903 16.7533 181.689 16.54C182.489 16.3133 183.316 16.2 184.169 16.2C185.716 16.2 186.909 16.5733 187.749 17.32C188.603 18.0533 189.029 19.1933 189.029 20.74V27H186.669ZM183.309 27.14C182.509 27.14 181.809 27.0067 181.209 26.74C180.609 26.46 180.143 26.08 179.809 25.6C179.489 25.1067 179.329 24.5533 179.329 23.94C179.329 23.34 179.469 22.8 179.749 22.32C180.043 21.84 180.516 21.46 181.169 21.18C181.823 20.9 182.689 20.76 183.769 20.76H186.869V22.42H183.949C183.096 22.42 182.523 22.56 182.229 22.84C181.936 23.1067 181.789 23.44 181.789 23.84C181.789 24.2933 181.969 24.6533 182.329 24.92C182.689 25.1867 183.189 25.32 183.829 25.32C184.443 25.32 184.989 25.18 185.469 24.9C185.963 24.62 186.316 24.2067 186.529 23.66L186.949 25.16C186.709 25.7867 186.276 26.2733 185.649 26.62C185.036 26.9667 184.256 27.14 183.309 27.14ZM192.238 27V16.32H194.738V27H192.238ZM193.498 14.56C193.031 14.56 192.644 14.4133 192.338 14.12C192.044 13.8267 191.898 13.4733 191.898 13.06C191.898 12.6333 192.044 12.28 192.338 12C192.644 11.7067 193.031 11.56 193.498 11.56C193.964 11.56 194.344 11.7 194.638 11.98C194.944 12.2467 195.098 12.5867 195.098 13C195.098 13.44 194.951 13.8133 194.658 14.12C194.364 14.4133 193.978 14.56 193.498 14.56ZM204.079 16.2C204.932 16.2 205.692 16.3667 206.359 16.7C207.039 17.0333 207.572 17.5467 207.959 18.24C208.346 18.92 208.539 19.8 208.539 20.88V27H206.039V21.2C206.039 20.2533 205.812 19.5467 205.359 19.08C204.919 18.6133 204.299 18.38 203.499 18.38C202.912 18.38 202.392 18.5 201.939 18.74C201.486 18.98 201.132 19.34 200.879 19.82C200.639 20.2867 200.519 20.88 200.519 21.6V27H198.019V16.32H200.399V19.2L199.979 18.32C200.352 17.64 200.892 17.12 201.599 16.76C202.319 16.3867 203.146 16.2 204.079 16.2Z" fill="white"/>
<defs>
<linearGradient id="paint0_linear_26_2" x1="65.5" y1="6.97157" x2="19.372" y2="17.2471" gradientUnits="userSpaceOnUse">
<stop offset="1" stop-color="white"/>
</linearGradient>
<linearGradient id="paint1_linear_26_2" x1="99.4441" y1="7.08049" x2="53.4104" y2="17.3495" gradientUnits="userSpaceOnUse">
<stop offset="1" stop-color="white"/>
</linearGradient>
</defs>
</svg>
